<?xml version="1.0" encoding="utf-8"?>
<!-- Generator: Adobe Illustrator 23.1.1, SVG Export Plug-In . SVG Version: 6.00 Build 0)  -->
<svg version="1.1" id="Layer_1" xmlns="http://www.w3.org/2000/svg" xmlns:xlink="http://www.w3.org/1999/xlink" x="0px" y="0px"
	 width="167.1px" height="58px" viewBox="0 0 167.1 58" style="enable-background:new 0 0 167.1 58;" xml:space="preserve">
<style type="text/css">
	.st0{fill-rule:evenodd;clip-rule:evenodd;fill:#FFFFFF;}
	.st1{fill:#FFFFFF;}
</style>
<g id="Logo">
	<g>
		<path class="st0" d="M50.3,0.8h-42c-3.9,0-7,3.1-7,7v42c0,3.9,3.1,7,7,7h42c3.9,0,7-3.1,7-7v-42C57.3,3.9,54.2,0.8,50.3,0.8z
			 M34.7,35.4v8H18.2V14.2H33c6,0,10.8,4.8,10.8,10.7C43.8,30.2,39.9,34.6,34.7,35.4z"/>
		<path class="st0" d="M33,18.4H22.4v20.8h8.2v-7.8H33c3.6,0,6.6-2.9,6.6-6.5C39.6,21.3,36.6,18.4,33,18.4z"/>
	</g>
	<path id="Pexels" class="st1" d="M76.7,39.3v-6.9H81c4.6,0,7.8-3,7.8-7.4c0-4.5-3.1-7.5-7.5-7.5h-9.1v21.8
		C72.2,39.3,76.7,39.3,76.7,39.3z M80,28.8h-3.3v-7.7H80c2.6,0,4.1,1.3,4.1,3.9C84.1,27.5,82.6,28.8,80,28.8z M98.7,39.6
		c4.1,0,7-1.9,7.6-5h-4.1c-0.5,1.1-1.7,1.8-3.4,1.8c-2.3,0-3.7-1.6-3.8-4.1V32h11.4v-1.3c0-5.3-2.9-8.4-7.8-8.4c-5,0-8,3.4-8,8.8
		C90.7,36.4,93.7,39.6,98.7,39.6z M102.2,29.3h-7.1c0.2-2.2,1.6-3.7,3.6-3.7C100.8,25.6,102.1,27,102.2,29.3z M112.3,39.3l3.1-5.5
		h0.3l3.1,5.5h4.9l-5.3-8.4l5.2-8.2h-4.8l-2.9,5.5h-0.3l-2.9-5.5h-5.1l5.3,8.4l-5.2,8.2H112.3z M132.5,39.6c4.1,0,7-1.9,7.6-5H136
		c-0.5,1.1-1.7,1.8-3.4,1.8c-2.3,0-3.7-1.6-3.8-4.1V32h11.4v-1.3c0-5.3-2.9-8.4-7.8-8.4c-5,0-8,3.4-8,8.8
		C124.5,36.4,127.5,39.6,132.5,39.6z M136,29.3h-7.1c0.2-2.2,1.6-3.7,3.6-3.7C134.5,25.6,135.9,27,136,29.3z M147.8,39.3v-23h-4.4
		v23H147.8z M158.4,39.6c4.4,0,7.3-2.1,7.3-5.4c0-2.5-1.4-3.8-4.7-4.5l-3.1-0.7c-1.5-0.3-2.2-0.9-2.2-1.7c0-1.1,1.2-1.8,2.7-1.8
		c1.6,0,2.6,0.7,2.9,1.8h4.1c-0.2-3.1-2.7-4.9-7-4.9c-4.2,0-6.9,2.1-6.9,5.2c0,2.6,1.6,4.1,4.8,4.8l3,0.7c1.5,0.3,2.1,0.8,2.1,1.7
		c0,1.1-1.2,1.9-2.9,1.9c-1.8,0-2.8-0.7-3.2-1.8H151C151.3,37.8,154,39.6,158.4,39.6z"/>
</g>
</svg>
